<?xml version="1.0" standalone="no"?>
<!DOCTYPE svg PUBLIC "-//W3C//DTD SVG 20010904//EN"
 "http://www.w3.org/TR/2001/REC-SVG-20010904/DTD/svg10.dtd">
<svg version="1.0" xmlns="http://www.w3.org/2000/svg"
 width="2000.000000pt" height="1500.000000pt" viewBox="0 0 2000.000000 1500.000000"
 preserveAspectRatio="xMidYMid meet">

<g transform="translate(0.000000,1500.000000) scale(0.100000,-0.100000)"
fill="#000000" stroke="none">
<path d="M9715 11966 c-323 -122 -457 -186 -604 -285 l-62 -42 7 88 c11 148
-20 148 -180 -3 -55 -53 -121 -110 -146 -127 -44 -31 -47 -32 -170 -32 -134
-1 -180 -13 -269 -69 -92 -59 -181 -164 -219 -261 -18 -47 -22 -50 -63 -58
-24 -4 -88 -3 -142 3 -212 22 -233 16 -393 -121 -161 -137 -712 -687 -736
-734 -12 -22 -34 -78 -49 -124 -16 -46 -41 -104 -56 -130 -26 -45 -185 -209
-463 -476 -157 -151 -236 -251 -307 -391 -105 -207 -161 -408 -217 -779 -15
-93 -40 -257 -57 -364 l-31 -193 70 -137 c161 -313 263 -602 305 -862 20 -123
-2 -164 -78 -145 l-25 6 0 -129 c0 -205 -9 -177 265 -796 187 -421 285 -661
360 -877 41 -119 51 -138 69 -138 38 0 93 -47 125 -107 6 -12 18 -59 27 -104
63 -331 220 -563 446 -656 57 -24 81 -27 253 -34 105 -4 204 -11 220 -17 50
-15 112 -50 149 -82 55 -49 143 -97 225 -124 86 -29 221 -50 268 -43 26 5 77
-19 308 -139 152 -79 323 -173 380 -209 109 -69 144 -78 172 -46 25 30 33 16
33 -55 l0 -66 38 6 c174 27 534 56 702 56 211 0 470 -32 597 -75 36 -12 48
-11 90 2 115 35 277 0 442 -96 43 -25 86 -42 119 -47 67 -9 84 4 80 59 l-3 40
60 25 c62 25 265 72 312 72 20 0 45 -19 102 -79 42 -44 86 -82 99 -86 21 -6
22 -4 22 65 0 39 6 85 13 103 24 56 39 62 154 62 l103 -1 1 76 c0 41 3 83 7
92 8 19 181 208 282 308 36 36 88 80 116 99 l49 33 72 -79 73 -78 0 40 c0 55
-42 141 -97 196 -62 64 -57 76 47 110 109 36 165 37 214 4 41 -28 42 -26 20
16 -34 67 15 101 158 109 76 4 103 10 125 26 37 27 62 80 70 146 6 50 13 62
118 188 263 317 437 592 600 946 76 167 178 415 172 421 -7 7 -99 -71 -169
-142 -38 -38 -91 -103 -120 -144 -74 -110 -96 -131 -134 -131 -18 0 -36 5 -39
10 -14 23 -26 5 -54 -82 l-30 -93 6 74 c5 62 4 73 -8 66 -8 -5 -120 -91 -249
-190 -436 -337 -784 -589 -1153 -836 -283 -190 -316 -209 -372 -209 -37 0 -48
5 -74 35 -17 20 -31 40 -31 45 0 19 -16 10 -75 -40 -86 -73 -125 -68 -125 16
l0 34 -73 0 c-81 0 -93 -7 -117 -67 -7 -18 -16 -33 -20 -33 -5 0 -17 16 -29
35 -11 19 -25 35 -30 35 -5 0 -13 -29 -16 -65 -7 -65 -18 -83 -28 -45 -10 39
-48 18 -80 -43 l-14 -28 -31 48 c-39 59 -116 145 -106 118 17 -49 26 -104 20
-120 -6 -16 -8 -17 -24 -1 -28 25 -32 20 -32 -34 0 -40 -5 -54 -22 -68 -12 -9
-48 -41 -79 -70 l-57 -53 -104 -10 c-144 -13 -224 -25 -367 -56 l-123 -27
-112 27 c-257 62 -566 114 -821 137 -340 31 -467 56 -630 127 -89 38 -242 118
-279 146 -19 14 -19 15 11 31 47 24 73 63 73 108 l0 40 -30 -31 c-27 -27 -101
-51 -197 -64 -6 -1 -116 97 -245 219 -128 121 -330 310 -448 420 -405 376
-759 744 -845 878 -48 75 -84 154 -185 400 -44 108 -87 210 -95 226 l-16 30
-29 -22 c-24 -18 -34 -20 -53 -11 -29 13 -67 87 -67 129 0 64 49 92 99 58 23
-16 23 -16 17 12 -3 16 -24 160 -47 319 -51 357 -50 372 20 516 l52 105 64
575 c35 316 73 621 85 679 54 258 183 569 328 790 181 276 355 463 862 931
159 146 200 176 390 287 85 49 247 145 360 212 349 206 599 323 835 388 250
69 356 83 670 89 143 2 277 8 297 14 54 14 94 59 107 119 12 56 14 131 5 178
-6 28 -8 30 -43 25 -45 -6 -84 12 -161 75 -43 35 -148 94 -163 92 -1 -1 -101
-38 -222 -84z m-3412 -5720 c12 -13 45 -75 71 -138 27 -62 60 -130 73 -150 13
-21 20 -38 17 -38 -4 0 -29 14 -55 30 -52 34 -79 79 -79 132 0 18 -16 66 -35
107 -19 40 -35 75 -35 77 0 12 24 1 43 -20z m-125 2 c9 -12 63 -178 57 -178
-6 0 -115 139 -115 146 0 10 31 44 40 44 4 0 12 -6 18 -12z"/>
<path d="M11283 11751 c-111 -7 -139 -19 -171 -76 -9 -16 -17 -31 -17 -32 -1
-1 -23 5 -50 13 -60 18 -229 11 -285 -13 -73 -30 -110 -85 -110 -162 0 -69 12
-94 77 -162 120 -126 289 -196 533 -221 114 -11 116 -12 220 -72 288 -166 534
-330 1117 -747 221 -158 416 -290 432 -294 38 -8 99 9 183 51 37 19 70 34 73
34 3 0 5 -36 5 -80 0 -110 22 -211 81 -365 63 -167 102 -222 201 -292 90 -63
122 -98 156 -172 36 -77 41 -208 13 -311 l-20 -75 46 -93 c87 -173 202 -327
305 -408 32 -25 59 -51 59 -57 1 -7 3 -33 4 -59 5 -92 53 -123 107 -71 l28 27
0 -30 c0 -16 -7 -83 -15 -149 -22 -175 -19 -465 5 -465 4 0 10 42 14 94 19
277 89 631 162 819 13 34 -43 -3 -72 -47 -39 -60 -65 -86 -86 -86 -17 0 -18
12 -18 158 0 198 -10 317 -61 720 l-41 323 -453 727 c-453 725 -455 727 -567
846 -268 284 -599 488 -1022 633 -279 95 -455 115 -833 94z"/>
<path d="M9064 9975 c-90 -45 -134 -137 -113 -236 22 -102 136 -181 237 -163
84 14 157 83 177 167 6 24 12 27 49 27 52 0 115 -29 147 -67 13 -16 56 -114
94 -217 76 -205 108 -256 189 -299 35 -19 57 -22 156 -22 99 0 121 3 156 22
81 43 113 94 188 298 39 104 81 201 95 218 32 38 94 66 146 67 39 0 41 -1 58
-49 21 -60 92 -127 144 -137 143 -27 263 66 263 203 0 178 -204 276 -341 164
-20 -17 -44 -46 -53 -64 -15 -32 -20 -35 -78 -41 -82 -10 -137 -35 -186 -85
-33 -34 -51 -71 -111 -233 -40 -105 -81 -204 -92 -220 -36 -50 -93 -72 -189
-72 -102 0 -157 23 -194 82 -13 20 -52 116 -87 212 -38 104 -76 190 -94 214
-40 52 -122 94 -200 102 -58 6 -61 8 -87 50 -59 96 -176 130 -274 79z"/>
<path d="M8706 9515 c-47 -17 -91 -57 -118 -109 -16 -31 -19 -53 -16 -107 3
-58 8 -74 34 -106 41 -50 86 -80 134 -88 97 -16 186 31 230 122 l25 53 185 0
c156 0 190 -3 220 -18 48 -24 76 -70 83 -137 7 -71 45 -137 99 -173 l42 -27
377 0 377 0 44 30 c54 39 84 92 97 175 12 74 33 108 82 132 29 15 63 18 221
18 l186 0 13 -37 c24 -74 121 -143 200 -143 114 0 209 98 209 215 0 117 -95
215 -209 215 -79 0 -176 -69 -200 -143 l-13 -37 -200 0 c-197 0 -201 0 -249
-26 -61 -34 -96 -85 -110 -160 -14 -75 -36 -122 -72 -148 -27 -20 -42 -21
-365 -24 -306 -2 -340 -1 -372 15 -49 25 -76 71 -84 142 -9 77 -53 145 -115
178 -42 22 -55 23 -246 23 l-202 0 -17 45 c-29 76 -119 136 -202 135 -16 -1
-46 -7 -68 -15z"/>
<path d="M8961 8929 c-119 -48 -171 -194 -106 -304 38 -65 92 -98 169 -103 49
-3 71 0 102 16 50 26 89 67 109 115 l15 37 750 0 750 0 15 -37 c46 -110 174
-163 283 -118 138 58 171 249 60 352 -56 53 -159 68 -233 34 -49 -22 -104 -82
-112 -122 l-5 -29 -754 0 -754 0 -15 38 c-34 81 -111 132 -197 131 -29 0 -64
-5 -77 -10z"/>
<path d="M9602 8518 c-70 -34 -121 -117 -122 -199 0 -46 -35 -99 -80 -121 -30
-15 -64 -18 -222 -18 l-186 0 -11 32 c-57 164 -275 193 -375 50 -42 -59 -48
-147 -14 -212 30 -58 95 -107 153 -116 95 -14 197 44 231 131 l17 45 202 0
c191 0 204 1 246 23 62 32 106 101 115 177 7 66 30 110 71 137 25 16 56 18
373 18 317 0 348 -2 373 -18 41 -27 64 -71 71 -137 9 -76 53 -145 115 -177 42
-22 55 -23 246 -23 l202 0 17 -44 c10 -25 35 -60 56 -80 137 -123 350 -26 350
159 0 68 -25 121 -76 163 -113 93 -286 43 -335 -96 l-11 -32 -186 0 c-158 0
-192 3 -222 18 -45 22 -80 75 -80 121 -1 83 -53 166 -124 200 -44 20 -59 21
-398 21 -337 -1 -355 -2 -396 -22z"/>
<path d="M9874 8284 c-53 -19 -120 -76 -143 -123 -10 -20 -44 -105 -75 -189
-66 -179 -75 -198 -113 -234 -36 -34 -73 -48 -127 -48 -41 0 -43 1 -55 41 -7
22 -28 58 -47 79 -93 103 -255 90 -334 -26 -34 -51 -40 -145 -12 -200 70 -135
233 -165 339 -62 17 17 37 43 43 58 10 25 17 28 76 33 81 8 157 47 199 103 18
24 59 116 99 225 74 197 87 222 144 256 31 20 51 23 131 23 82 0 100 -3 137
-25 56 -33 70 -58 145 -265 38 -103 76 -191 94 -215 43 -56 118 -94 200 -102
57 -5 68 -9 75 -28 16 -41 70 -93 115 -111 162 -61 322 77 285 246 -10 45 -21
64 -60 101 -58 57 -116 74 -194 57 -64 -13 -139 -84 -155 -145 -12 -43 -12
-43 -57 -43 -53 0 -112 27 -146 68 -13 16 -55 113 -93 216 -80 220 -115 269
-211 305 -66 25 -197 27 -260 5z"/>
<path d="M7680 6074 l0 -1076 348 5 c363 5 402 9 548 57 121 41 255 142 310
235 77 132 91 320 34 475 -41 110 -148 224 -265 280 -64 30 -195 70 -232 70
-36 0 -27 27 11 34 62 12 173 75 228 130 96 96 138 200 138 341 -1 145 -40
246 -129 335 -147 145 -330 189 -793 190 l-198 0 0 -1076z m606 976 c186 -48
282 -172 300 -388 17 -207 -58 -376 -201 -449 -85 -44 -141 -54 -322 -60
l-173 -6 0 462 0 461 158 0 c127 0 175 -4 238 -20z m102 -994 c172 -44 284
-151 327 -312 21 -79 21 -259 0 -338 -43 -161 -148 -261 -321 -307 -63 -16
-122 -22 -291 -26 l-213 -6 0 508 0 507 218 -5 c150 -3 236 -10 280 -21z"/>
<path d="M9570 6075 l0 -1075 470 0 470 0 0 76 0 76 -32 -6 c-45 -8 -663 -86
-683 -86 -13 0 -15 58 -15 515 0 283 3 515 8 515 4 0 149 -9 322 -20 173 -11
325 -20 338 -20 21 0 22 4 22 71 l0 71 -72 -6 c-86 -8 -559 -36 -594 -36 l-24
0 0 465 0 465 38 0 c22 0 177 -18 346 -40 169 -22 313 -40 321 -40 12 0 15 16
15 75 l0 75 -465 0 -465 0 0 -1075z"/>
<path d="M11160 6077 l0 -1077 105 0 105 0 0 474 0 473 183 6 c195 6 289 22
397 64 244 97 369 278 370 533 0 205 -90 372 -256 473 -152 92 -279 117 -636
124 l-268 6 0 -1076z m558 977 c254 -52 382 -221 382 -504 0 -165 -51 -311
-133 -387 -105 -96 -212 -130 -444 -140 l-153 -6 0 526 0 527 135 0 c85 0 165
-6 213 -16z"/>
</g>
</svg>
